<mxfile host="app.diagrams.net" modified="2023-11-08T14:59:46.342Z" agent="Mozilla/5.0 (Windows NT 10.0; Win64; x64) AppleWebKit/537.36 (KHTML, like Gecko) Chrome/119.0.0.0 Safari/537.36" etag="JPwmhMZd-_c0wIpxJsUc" version="22.0.8" type="github">
  <diagram id="C5RBs43oDa-KdzZeNtuy" name="Page-1">
    <mxGraphModel dx="1500" dy="763" grid="1" gridSize="10" guides="1" tooltips="1" connect="1" arrows="1" fold="1" page="1" pageScale="1" pageWidth="1654" pageHeight="2336" math="0" shadow="0">
      <root>
        <mxCell id="WIyWlLk6GJQsqaUBKTNV-0" />
        <mxCell id="WIyWlLk6GJQsqaUBKTNV-1" parent="WIyWlLk6GJQsqaUBKTNV-0" />
        <mxCell id="jLUfQ_ZdSW11AOpu9WSQ-0" value="Karten" style="swimlane;fontStyle=1;align=center;verticalAlign=top;childLayout=stackLayout;horizontal=1;startSize=26;horizontalStack=0;resizeParent=1;resizeParentMax=0;resizeLast=0;collapsible=1;marginBottom=0;whiteSpace=wrap;html=1;" vertex="1" parent="WIyWlLk6GJQsqaUBKTNV-1">
          <mxGeometry x="1160" y="1674" width="160" height="86" as="geometry" />
        </mxCell>
        <mxCell id="jLUfQ_ZdSW11AOpu9WSQ-1" value="+ iD: type" style="text;strokeColor=none;fillColor=none;align=left;verticalAlign=top;spacingLeft=4;spacingRight=4;overflow=hidden;rotatable=0;points=[[0,0.5],[1,0.5]];portConstraint=eastwest;whiteSpace=wrap;html=1;" vertex="1" parent="jLUfQ_ZdSW11AOpu9WSQ-0">
          <mxGeometry y="26" width="160" height="26" as="geometry" />
        </mxCell>
        <mxCell id="jLUfQ_ZdSW11AOpu9WSQ-2" value="" style="line;strokeWidth=1;fillColor=none;align=left;verticalAlign=middle;spacingTop=-1;spacingLeft=3;spacingRight=3;rotatable=0;labelPosition=right;points=[];portConstraint=eastwest;strokeColor=inherit;" vertex="1" parent="jLUfQ_ZdSW11AOpu9WSQ-0">
          <mxGeometry y="52" width="160" height="8" as="geometry" />
        </mxCell>
        <mxCell id="jLUfQ_ZdSW11AOpu9WSQ-3" value="+ method(type): type" style="text;strokeColor=none;fillColor=none;align=left;verticalAlign=top;spacingLeft=4;spacingRight=4;overflow=hidden;rotatable=0;points=[[0,0.5],[1,0.5]];portConstraint=eastwest;whiteSpace=wrap;html=1;" vertex="1" parent="jLUfQ_ZdSW11AOpu9WSQ-0">
          <mxGeometry y="60" width="160" height="26" as="geometry" />
        </mxCell>
        <mxCell id="jLUfQ_ZdSW11AOpu9WSQ-4" value="Entwicklungskarten" style="swimlane;fontStyle=1;align=center;verticalAlign=top;childLayout=stackLayout;horizontal=1;startSize=26;horizontalStack=0;resizeParent=1;resizeParentMax=0;resizeLast=0;collapsible=1;marginBottom=0;whiteSpace=wrap;html=1;" vertex="1" parent="WIyWlLk6GJQsqaUBKTNV-1">
          <mxGeometry x="990" y="1814" width="160" height="86" as="geometry" />
        </mxCell>
        <mxCell id="jLUfQ_ZdSW11AOpu9WSQ-5" value="+ field: type" style="text;strokeColor=none;fillColor=none;align=left;verticalAlign=top;spacingLeft=4;spacingRight=4;overflow=hidden;rotatable=0;points=[[0,0.5],[1,0.5]];portConstraint=eastwest;whiteSpace=wrap;html=1;" vertex="1" parent="jLUfQ_ZdSW11AOpu9WSQ-4">
          <mxGeometry y="26" width="160" height="26" as="geometry" />
        </mxCell>
        <mxCell id="jLUfQ_ZdSW11AOpu9WSQ-6" value="" style="line;strokeWidth=1;fillColor=none;align=left;verticalAlign=middle;spacingTop=-1;spacingLeft=3;spacingRight=3;rotatable=0;labelPosition=right;points=[];portConstraint=eastwest;strokeColor=inherit;" vertex="1" parent="jLUfQ_ZdSW11AOpu9WSQ-4">
          <mxGeometry y="52" width="160" height="8" as="geometry" />
        </mxCell>
        <mxCell id="jLUfQ_ZdSW11AOpu9WSQ-7" value="+ method(type): type" style="text;strokeColor=none;fillColor=none;align=left;verticalAlign=top;spacingLeft=4;spacingRight=4;overflow=hidden;rotatable=0;points=[[0,0.5],[1,0.5]];portConstraint=eastwest;whiteSpace=wrap;html=1;" vertex="1" parent="jLUfQ_ZdSW11AOpu9WSQ-4">
          <mxGeometry y="60" width="160" height="26" as="geometry" />
        </mxCell>
        <mxCell id="jLUfQ_ZdSW11AOpu9WSQ-8" value="Rohstoffkarten" style="swimlane;fontStyle=1;align=center;verticalAlign=top;childLayout=stackLayout;horizontal=1;startSize=26;horizontalStack=0;resizeParent=1;resizeParentMax=0;resizeLast=0;collapsible=1;marginBottom=0;whiteSpace=wrap;html=1;" vertex="1" parent="WIyWlLk6GJQsqaUBKTNV-1">
          <mxGeometry x="1340" y="1814" width="160" height="86" as="geometry" />
        </mxCell>
        <mxCell id="jLUfQ_ZdSW11AOpu9WSQ-9" value="+ field: type" style="text;strokeColor=none;fillColor=none;align=left;verticalAlign=top;spacingLeft=4;spacingRight=4;overflow=hidden;rotatable=0;points=[[0,0.5],[1,0.5]];portConstraint=eastwest;whiteSpace=wrap;html=1;" vertex="1" parent="jLUfQ_ZdSW11AOpu9WSQ-8">
          <mxGeometry y="26" width="160" height="26" as="geometry" />
        </mxCell>
        <mxCell id="jLUfQ_ZdSW11AOpu9WSQ-10" value="" style="line;strokeWidth=1;fillColor=none;align=left;verticalAlign=middle;spacingTop=-1;spacingLeft=3;spacingRight=3;rotatable=0;labelPosition=right;points=[];portConstraint=eastwest;strokeColor=inherit;" vertex="1" parent="jLUfQ_ZdSW11AOpu9WSQ-8">
          <mxGeometry y="52" width="160" height="8" as="geometry" />
        </mxCell>
        <mxCell id="jLUfQ_ZdSW11AOpu9WSQ-11" value="+ method(type): type" style="text;strokeColor=none;fillColor=none;align=left;verticalAlign=top;spacingLeft=4;spacingRight=4;overflow=hidden;rotatable=0;points=[[0,0.5],[1,0.5]];portConstraint=eastwest;whiteSpace=wrap;html=1;" vertex="1" parent="jLUfQ_ZdSW11AOpu9WSQ-8">
          <mxGeometry y="60" width="160" height="26" as="geometry" />
        </mxCell>
        <mxCell id="jLUfQ_ZdSW11AOpu9WSQ-12" style="edgeStyle=orthogonalEdgeStyle;rounded=0;orthogonalLoop=1;jettySize=auto;html=1;exitX=0.25;exitY=0;exitDx=0;exitDy=0;entryX=0.593;entryY=1.049;entryDx=0;entryDy=0;entryPerimeter=0;" edge="1" parent="WIyWlLk6GJQsqaUBKTNV-1" source="jLUfQ_ZdSW11AOpu9WSQ-8" target="jLUfQ_ZdSW11AOpu9WSQ-3">
          <mxGeometry relative="1" as="geometry">
            <Array as="points">
              <mxPoint x="1440" y="1794" />
              <mxPoint x="1255" y="1794" />
            </Array>
          </mxGeometry>
        </mxCell>
        <mxCell id="jLUfQ_ZdSW11AOpu9WSQ-13" style="edgeStyle=orthogonalEdgeStyle;rounded=0;orthogonalLoop=1;jettySize=auto;html=1;exitX=0.5;exitY=0;exitDx=0;exitDy=0;entryX=0.307;entryY=1.137;entryDx=0;entryDy=0;entryPerimeter=0;" edge="1" parent="WIyWlLk6GJQsqaUBKTNV-1" source="jLUfQ_ZdSW11AOpu9WSQ-4" target="jLUfQ_ZdSW11AOpu9WSQ-3">
          <mxGeometry relative="1" as="geometry">
            <Array as="points">
              <mxPoint x="1030" y="1794" />
              <mxPoint x="1209" y="1794" />
            </Array>
          </mxGeometry>
        </mxCell>
        <mxCell id="jLUfQ_ZdSW11AOpu9WSQ-18" value="&lt;p style=&quot;margin:0px;margin-top:4px;text-align:center;&quot;&gt;&lt;i&gt;&amp;lt;&amp;lt;Spiel&amp;gt;&amp;gt;&lt;/i&gt;&lt;br&gt;&lt;b&gt;Sieder von Catan&lt;/b&gt;&lt;/p&gt;&lt;hr size=&quot;1&quot;&gt;&lt;p style=&quot;margin:0px;margin-left:4px;&quot;&gt;+ spielrunde: int&lt;br&gt;+ anleitung: strinf&lt;/p&gt;&lt;hr size=&quot;1&quot;&gt;&lt;p style=&quot;margin:0px;margin-left:4px;&quot;&gt;&lt;br&gt;&lt;/p&gt;" style="verticalAlign=top;align=left;overflow=fill;fontSize=12;fontFamily=Helvetica;html=1;whiteSpace=wrap;fillColor=#f8cecc;strokeColor=#b85450;" vertex="1" parent="WIyWlLk6GJQsqaUBKTNV-1">
          <mxGeometry x="1150" y="1390" width="190" height="110" as="geometry" />
        </mxCell>
        <mxCell id="jLUfQ_ZdSW11AOpu9WSQ-26" value="" style="endArrow=none;html=1;edgeStyle=orthogonalEdgeStyle;rounded=0;entryX=0.5;entryY=1;entryDx=0;entryDy=0;" edge="1" parent="WIyWlLk6GJQsqaUBKTNV-1" target="jLUfQ_ZdSW11AOpu9WSQ-18">
          <mxGeometry relative="1" as="geometry">
            <mxPoint x="1220" y="1674" as="sourcePoint" />
            <mxPoint x="1380" y="1674" as="targetPoint" />
          </mxGeometry>
        </mxCell>
        <mxCell id="jLUfQ_ZdSW11AOpu9WSQ-33" style="edgeStyle=orthogonalEdgeStyle;rounded=0;orthogonalLoop=1;jettySize=auto;html=1;exitX=0.5;exitY=1;exitDx=0;exitDy=0;" edge="1" parent="WIyWlLk6GJQsqaUBKTNV-1">
          <mxGeometry relative="1" as="geometry">
            <mxPoint x="1135" y="1990" as="targetPoint" />
            <mxPoint x="1135" y="1974" as="sourcePoint" />
          </mxGeometry>
        </mxCell>
        <mxCell id="jLUfQ_ZdSW11AOpu9WSQ-54" style="edgeStyle=orthogonalEdgeStyle;rounded=0;orthogonalLoop=1;jettySize=auto;html=1;exitX=0;exitY=0.5;exitDx=0;exitDy=0;endArrow=none;endFill=0;" edge="1" parent="WIyWlLk6GJQsqaUBKTNV-1" source="jLUfQ_ZdSW11AOpu9WSQ-38">
          <mxGeometry relative="1" as="geometry">
            <mxPoint x="1360" y="1965.3333333333333" as="targetPoint" />
          </mxGeometry>
        </mxCell>
        <mxCell id="jLUfQ_ZdSW11AOpu9WSQ-38" value="&lt;p style=&quot;margin:0px;margin-top:4px;text-align:center;&quot;&gt;&lt;i&gt;&amp;lt;&amp;lt;Rohstoffkarte&amp;gt;&amp;gt;&lt;/i&gt;&lt;br&gt;&lt;b&gt;Erz&lt;/b&gt;&lt;/p&gt;&lt;hr size=&quot;1&quot;&gt;&lt;p style=&quot;margin:0px;margin-left:4px;&quot;&gt;&lt;/p&gt;&lt;p style=&quot;margin:0px;margin-left:4px;&quot;&gt;&lt;br&gt;&lt;/p&gt;" style="verticalAlign=top;align=left;overflow=fill;fontSize=12;fontFamily=Helvetica;html=1;whiteSpace=wrap;" vertex="1" parent="WIyWlLk6GJQsqaUBKTNV-1">
          <mxGeometry x="1450" y="1940" width="110" height="50" as="geometry" />
        </mxCell>
        <mxCell id="jLUfQ_ZdSW11AOpu9WSQ-57" style="edgeStyle=orthogonalEdgeStyle;rounded=0;orthogonalLoop=1;jettySize=auto;html=1;exitX=0;exitY=0.5;exitDx=0;exitDy=0;endArrow=none;endFill=0;" edge="1" parent="WIyWlLk6GJQsqaUBKTNV-1" source="jLUfQ_ZdSW11AOpu9WSQ-39">
          <mxGeometry relative="1" as="geometry">
            <mxPoint x="1360" y="2175.333333333333" as="targetPoint" />
          </mxGeometry>
        </mxCell>
        <mxCell id="jLUfQ_ZdSW11AOpu9WSQ-39" value="&lt;p style=&quot;margin:0px;margin-top:4px;text-align:center;&quot;&gt;&lt;i&gt;&amp;lt;&amp;lt;Rohstoffkarte&amp;gt;&amp;gt;&lt;/i&gt;&lt;br&gt;&lt;b&gt;Lehm&lt;/b&gt;&lt;/p&gt;&lt;hr size=&quot;1&quot;&gt;&lt;p style=&quot;margin:0px;margin-left:4px;&quot;&gt;&lt;/p&gt;&lt;p style=&quot;margin:0px;margin-left:4px;&quot;&gt;&lt;br&gt;&lt;/p&gt;" style="verticalAlign=top;align=left;overflow=fill;fontSize=12;fontFamily=Helvetica;html=1;whiteSpace=wrap;" vertex="1" parent="WIyWlLk6GJQsqaUBKTNV-1">
          <mxGeometry x="1450" y="2150" width="110" height="50" as="geometry" />
        </mxCell>
        <mxCell id="jLUfQ_ZdSW11AOpu9WSQ-56" style="edgeStyle=orthogonalEdgeStyle;rounded=0;orthogonalLoop=1;jettySize=auto;html=1;exitX=0;exitY=0.5;exitDx=0;exitDy=0;endArrow=none;endFill=0;" edge="1" parent="WIyWlLk6GJQsqaUBKTNV-1" source="jLUfQ_ZdSW11AOpu9WSQ-40">
          <mxGeometry relative="1" as="geometry">
            <mxPoint x="1360" y="2103.333333333333" as="targetPoint" />
          </mxGeometry>
        </mxCell>
        <mxCell id="jLUfQ_ZdSW11AOpu9WSQ-40" value="&lt;p style=&quot;margin:0px;margin-top:4px;text-align:center;&quot;&gt;&lt;i&gt;&amp;lt;&amp;lt;Rohstoffkarte&amp;gt;&amp;gt;&lt;/i&gt;&lt;br&gt;&lt;b&gt;Wolle&lt;/b&gt;&lt;/p&gt;&lt;hr size=&quot;1&quot;&gt;&lt;p style=&quot;margin:0px;margin-left:4px;&quot;&gt;&lt;/p&gt;&lt;p style=&quot;margin:0px;margin-left:4px;&quot;&gt;&lt;br&gt;&lt;/p&gt;" style="verticalAlign=top;align=left;overflow=fill;fontSize=12;fontFamily=Helvetica;html=1;whiteSpace=wrap;" vertex="1" parent="WIyWlLk6GJQsqaUBKTNV-1">
          <mxGeometry x="1450" y="2078" width="110" height="50" as="geometry" />
        </mxCell>
        <mxCell id="jLUfQ_ZdSW11AOpu9WSQ-55" style="edgeStyle=orthogonalEdgeStyle;rounded=0;orthogonalLoop=1;jettySize=auto;html=1;exitX=0;exitY=0.5;exitDx=0;exitDy=0;endArrow=none;endFill=0;" edge="1" parent="WIyWlLk6GJQsqaUBKTNV-1" source="jLUfQ_ZdSW11AOpu9WSQ-41">
          <mxGeometry relative="1" as="geometry">
            <mxPoint x="1360" y="2035.333333333333" as="targetPoint" />
          </mxGeometry>
        </mxCell>
        <mxCell id="jLUfQ_ZdSW11AOpu9WSQ-41" value="&lt;p style=&quot;margin:0px;margin-top:4px;text-align:center;&quot;&gt;&lt;i&gt;&amp;lt;&amp;lt;Rohstoffkarte&amp;gt;&amp;gt;&lt;/i&gt;&lt;br&gt;&lt;b&gt;Holz&lt;/b&gt;&lt;/p&gt;&lt;hr size=&quot;1&quot;&gt;&lt;p style=&quot;margin:0px;margin-left:4px;&quot;&gt;&lt;/p&gt;&lt;p style=&quot;margin:0px;margin-left:4px;&quot;&gt;&lt;br&gt;&lt;/p&gt;" style="verticalAlign=top;align=left;overflow=fill;fontSize=12;fontFamily=Helvetica;html=1;whiteSpace=wrap;" vertex="1" parent="WIyWlLk6GJQsqaUBKTNV-1">
          <mxGeometry x="1450" y="2010" width="110" height="50" as="geometry" />
        </mxCell>
        <mxCell id="jLUfQ_ZdSW11AOpu9WSQ-42" value="&lt;p style=&quot;margin:0px;margin-top:4px;text-align:center;&quot;&gt;&lt;i&gt;&amp;lt;&amp;lt;Rohstoffkarte&amp;gt;&amp;gt;&lt;/i&gt;&lt;br&gt;&lt;/p&gt;&lt;p style=&quot;margin:0px;margin-top:4px;text-align:center;&quot;&gt;&lt;i&gt;&lt;b&gt;Getreide&lt;/b&gt;&lt;/i&gt;&lt;/p&gt;&lt;p style=&quot;margin:0px;margin-left:4px;&quot;&gt;&lt;/p&gt;&lt;p style=&quot;margin:0px;margin-left:4px;&quot;&gt;&lt;br&gt;&lt;/p&gt;" style="verticalAlign=top;align=left;overflow=fill;fontSize=12;fontFamily=Helvetica;html=1;whiteSpace=wrap;" vertex="1" parent="WIyWlLk6GJQsqaUBKTNV-1">
          <mxGeometry x="1450" y="2220" width="110" height="50" as="geometry" />
        </mxCell>
        <mxCell id="jLUfQ_ZdSW11AOpu9WSQ-53" style="edgeStyle=orthogonalEdgeStyle;rounded=0;orthogonalLoop=1;jettySize=auto;html=1;exitX=0;exitY=0.5;exitDx=0;exitDy=0;entryX=0.125;entryY=1.075;entryDx=0;entryDy=0;entryPerimeter=0;" edge="1" parent="WIyWlLk6GJQsqaUBKTNV-1" source="jLUfQ_ZdSW11AOpu9WSQ-42" target="jLUfQ_ZdSW11AOpu9WSQ-11">
          <mxGeometry relative="1" as="geometry">
            <Array as="points">
              <mxPoint x="1360" y="2245" />
            </Array>
          </mxGeometry>
        </mxCell>
        <mxCell id="jLUfQ_ZdSW11AOpu9WSQ-58" style="edgeStyle=orthogonalEdgeStyle;rounded=0;orthogonalLoop=1;jettySize=auto;html=1;exitX=0;exitY=0.5;exitDx=0;exitDy=0;endArrow=none;endFill=0;" edge="1" parent="WIyWlLk6GJQsqaUBKTNV-1" source="jLUfQ_ZdSW11AOpu9WSQ-59">
          <mxGeometry relative="1" as="geometry">
            <mxPoint x="1000" y="1945.3333333333333" as="targetPoint" />
          </mxGeometry>
        </mxCell>
        <mxCell id="jLUfQ_ZdSW11AOpu9WSQ-59" value="&lt;p style=&quot;margin:0px;margin-top:4px;text-align:center;&quot;&gt;&lt;i&gt;&amp;lt;&amp;lt;Entwicklungskarte&amp;gt;&amp;gt;&lt;/i&gt;&lt;br&gt;&lt;b&gt;Fortschritt&lt;/b&gt;&lt;/p&gt;&lt;hr size=&quot;1&quot;&gt;&lt;p style=&quot;margin:0px;margin-left:4px;&quot;&gt;&lt;/p&gt;&lt;p style=&quot;margin:0px;margin-left:4px;&quot;&gt;&lt;br&gt;&lt;/p&gt;" style="verticalAlign=top;align=left;overflow=fill;fontSize=12;fontFamily=Helvetica;html=1;whiteSpace=wrap;" vertex="1" parent="WIyWlLk6GJQsqaUBKTNV-1">
          <mxGeometry x="1090" y="1920" width="110" height="50" as="geometry" />
        </mxCell>
        <mxCell id="jLUfQ_ZdSW11AOpu9WSQ-63" value="&lt;p style=&quot;margin:0px;margin-top:4px;text-align:center;&quot;&gt;&lt;i&gt;&amp;lt;&amp;lt;Rohstoffkarte&amp;gt;&amp;gt;&lt;/i&gt;&lt;br&gt;&lt;b&gt;Ritterkarte&lt;/b&gt;&lt;/p&gt;" style="verticalAlign=top;align=left;overflow=fill;fontSize=12;fontFamily=Helvetica;html=1;whiteSpace=wrap;" vertex="1" parent="WIyWlLk6GJQsqaUBKTNV-1">
          <mxGeometry x="1090" y="2058" width="110" height="50" as="geometry" />
        </mxCell>
        <mxCell id="jLUfQ_ZdSW11AOpu9WSQ-64" style="edgeStyle=orthogonalEdgeStyle;rounded=0;orthogonalLoop=1;jettySize=auto;html=1;exitX=0;exitY=0.5;exitDx=0;exitDy=0;endArrow=none;endFill=0;" edge="1" parent="WIyWlLk6GJQsqaUBKTNV-1" source="jLUfQ_ZdSW11AOpu9WSQ-65">
          <mxGeometry relative="1" as="geometry">
            <mxPoint x="1000" y="2015.333333333333" as="targetPoint" />
          </mxGeometry>
        </mxCell>
        <mxCell id="jLUfQ_ZdSW11AOpu9WSQ-65" value="&lt;p style=&quot;margin:0px;margin-top:4px;text-align:center;&quot;&gt;&lt;i&gt;&amp;lt;&amp;lt;Rohstoffkarte&amp;gt;&amp;gt;&lt;/i&gt;&lt;/p&gt;&lt;p style=&quot;margin:0px;margin-top:4px;text-align:center;&quot;&gt;&lt;i&gt;&lt;b&gt;Siegpunktkarte&lt;/b&gt;&lt;/i&gt;&lt;/p&gt;" style="verticalAlign=top;align=left;overflow=fill;fontSize=12;fontFamily=Helvetica;html=1;whiteSpace=wrap;" vertex="1" parent="WIyWlLk6GJQsqaUBKTNV-1">
          <mxGeometry x="1090" y="1990" width="110" height="50" as="geometry" />
        </mxCell>
        <mxCell id="jLUfQ_ZdSW11AOpu9WSQ-67" style="edgeStyle=orthogonalEdgeStyle;rounded=0;orthogonalLoop=1;jettySize=auto;html=1;exitX=0;exitY=0.5;exitDx=0;exitDy=0;" edge="1" parent="WIyWlLk6GJQsqaUBKTNV-1" source="jLUfQ_ZdSW11AOpu9WSQ-63">
          <mxGeometry relative="1" as="geometry">
            <mxPoint x="1000" y="1901" as="targetPoint" />
            <Array as="points">
              <mxPoint x="1000" y="2083" />
              <mxPoint x="1000" y="1901" />
            </Array>
          </mxGeometry>
        </mxCell>
        <mxCell id="jLUfQ_ZdSW11AOpu9WSQ-68" value="&lt;p style=&quot;margin:0px;margin-top:4px;text-align:center;&quot;&gt;&lt;i&gt;&amp;lt;&amp;lt;Spielfigur&amp;gt;&amp;gt;&lt;/i&gt;&lt;br&gt;&lt;b&gt;Spielfigur&lt;/b&gt;&lt;/p&gt;&lt;hr size=&quot;1&quot;&gt;&lt;p style=&quot;margin:0px;margin-left:4px;&quot;&gt;+ farbe: string&lt;br&gt;+ Kosten: string&lt;/p&gt;&lt;p style=&quot;margin:0px;margin-left:4px;&quot;&gt;+ posititon:&amp;nbsp;&lt;/p&gt;" style="verticalAlign=top;align=left;overflow=fill;fontSize=12;fontFamily=Helvetica;html=1;whiteSpace=wrap;" vertex="1" parent="WIyWlLk6GJQsqaUBKTNV-1">
          <mxGeometry x="70" y="1610" width="190" height="100" as="geometry" />
        </mxCell>
        <mxCell id="jLUfQ_ZdSW11AOpu9WSQ-69" value="" style="endArrow=none;html=1;edgeStyle=orthogonalEdgeStyle;rounded=0;exitX=1.004;exitY=0.604;exitDx=0;exitDy=0;exitPerimeter=0;" edge="1" parent="WIyWlLk6GJQsqaUBKTNV-1" source="jLUfQ_ZdSW11AOpu9WSQ-68">
          <mxGeometry relative="1" as="geometry">
            <mxPoint x="900" y="1480" as="sourcePoint" />
            <mxPoint x="1150" y="1400" as="targetPoint" />
            <Array as="points">
              <mxPoint x="705" y="1670" />
              <mxPoint x="705" y="1400" />
              <mxPoint x="1150" y="1400" />
            </Array>
          </mxGeometry>
        </mxCell>
        <mxCell id="jLUfQ_ZdSW11AOpu9WSQ-80" style="edgeStyle=orthogonalEdgeStyle;rounded=0;orthogonalLoop=1;jettySize=auto;html=1;exitX=0;exitY=0.5;exitDx=0;exitDy=0;endArrow=none;endFill=0;" edge="1" parent="WIyWlLk6GJQsqaUBKTNV-1" source="jLUfQ_ZdSW11AOpu9WSQ-81">
          <mxGeometry relative="1" as="geometry">
            <mxPoint x="110" y="1798.3333333333333" as="targetPoint" />
          </mxGeometry>
        </mxCell>
        <mxCell id="jLUfQ_ZdSW11AOpu9WSQ-81" value="&lt;p style=&quot;margin:0px;margin-top:4px;text-align:center;&quot;&gt;&lt;i&gt;&amp;lt;&amp;lt;Spielfigur&amp;gt;&amp;gt;&lt;/i&gt;&lt;/p&gt;&lt;p style=&quot;margin:0px;margin-top:4px;text-align:center;&quot;&gt;&lt;i&gt;&lt;b&gt;S&lt;/b&gt;&lt;/i&gt;&lt;i style=&quot;background-color: initial;&quot;&gt;&lt;b&gt;iedlung&lt;/b&gt;&lt;/i&gt;&lt;/p&gt;&lt;p style=&quot;margin:0px;margin-left:4px;&quot;&gt;&lt;/p&gt;&lt;p style=&quot;margin:0px;margin-left:4px;&quot;&gt;&lt;br&gt;&lt;/p&gt;&lt;p style=&quot;margin:0px;margin-left:4px;&quot;&gt;&lt;br&gt;&lt;/p&gt;" style="verticalAlign=top;align=left;overflow=fill;fontSize=12;fontFamily=Helvetica;html=1;whiteSpace=wrap;" vertex="1" parent="WIyWlLk6GJQsqaUBKTNV-1">
          <mxGeometry x="201" y="1775" width="110" height="50" as="geometry" />
        </mxCell>
        <mxCell id="jLUfQ_ZdSW11AOpu9WSQ-82" value="&lt;p style=&quot;margin:0px;margin-top:4px;text-align:center;&quot;&gt;&lt;i&gt;&amp;lt;&amp;lt;Spielfigur&amp;gt;&amp;gt;&lt;/i&gt;&lt;br&gt;&lt;b&gt;Stadt&lt;/b&gt;&lt;/p&gt;" style="verticalAlign=top;align=left;overflow=fill;fontSize=12;fontFamily=Helvetica;html=1;whiteSpace=wrap;" vertex="1" parent="WIyWlLk6GJQsqaUBKTNV-1">
          <mxGeometry x="201" y="1913" width="110" height="42" as="geometry" />
        </mxCell>
        <mxCell id="jLUfQ_ZdSW11AOpu9WSQ-83" style="edgeStyle=orthogonalEdgeStyle;rounded=0;orthogonalLoop=1;jettySize=auto;html=1;exitX=0;exitY=0.5;exitDx=0;exitDy=0;endArrow=none;endFill=0;" edge="1" parent="WIyWlLk6GJQsqaUBKTNV-1" source="jLUfQ_ZdSW11AOpu9WSQ-84">
          <mxGeometry relative="1" as="geometry">
            <mxPoint x="111" y="1898.333333333333" as="targetPoint" />
          </mxGeometry>
        </mxCell>
        <mxCell id="jLUfQ_ZdSW11AOpu9WSQ-84" value="&lt;p style=&quot;margin:0px;margin-top:4px;text-align:center;&quot;&gt;&lt;i&gt;&amp;lt;&amp;lt;Spielfigur&amp;gt;&amp;gt;&lt;/i&gt;&lt;/p&gt;&lt;p style=&quot;margin:0px;margin-top:4px;text-align:center;&quot;&gt;&lt;i&gt;&lt;b&gt;Strasse&lt;/b&gt;&lt;/i&gt;&lt;/p&gt;" style="verticalAlign=top;align=left;overflow=fill;fontSize=12;fontFamily=Helvetica;html=1;whiteSpace=wrap;" vertex="1" parent="WIyWlLk6GJQsqaUBKTNV-1">
          <mxGeometry x="201" y="1843" width="110" height="50" as="geometry" />
        </mxCell>
        <mxCell id="jLUfQ_ZdSW11AOpu9WSQ-85" style="edgeStyle=orthogonalEdgeStyle;rounded=0;orthogonalLoop=1;jettySize=auto;html=1;exitX=0;exitY=0.5;exitDx=0;exitDy=0;" edge="1" parent="WIyWlLk6GJQsqaUBKTNV-1" source="jLUfQ_ZdSW11AOpu9WSQ-82" target="jLUfQ_ZdSW11AOpu9WSQ-68">
          <mxGeometry relative="1" as="geometry">
            <Array as="points">
              <mxPoint x="110" y="1934" />
            </Array>
          </mxGeometry>
        </mxCell>
        <mxCell id="jLUfQ_ZdSW11AOpu9WSQ-88" value="16" style="text;html=1;align=center;verticalAlign=middle;resizable=0;points=[];autosize=1;strokeColor=none;fillColor=none;" vertex="1" parent="WIyWlLk6GJQsqaUBKTNV-1">
          <mxGeometry x="170" y="1911" width="40" height="30" as="geometry" />
        </mxCell>
        <mxCell id="jLUfQ_ZdSW11AOpu9WSQ-91" value="60" style="text;html=1;align=center;verticalAlign=middle;resizable=0;points=[];autosize=1;strokeColor=none;fillColor=none;" vertex="1" parent="WIyWlLk6GJQsqaUBKTNV-1">
          <mxGeometry x="170" y="1841" width="40" height="30" as="geometry" />
        </mxCell>
        <mxCell id="jLUfQ_ZdSW11AOpu9WSQ-92" value="20" style="text;html=1;align=center;verticalAlign=middle;resizable=0;points=[];autosize=1;strokeColor=none;fillColor=none;" vertex="1" parent="WIyWlLk6GJQsqaUBKTNV-1">
          <mxGeometry x="170" y="1771" width="40" height="30" as="geometry" />
        </mxCell>
        <mxCell id="jLUfQ_ZdSW11AOpu9WSQ-93" value="97" style="text;html=1;align=center;verticalAlign=middle;resizable=0;points=[];autosize=1;strokeColor=none;fillColor=none;" vertex="1" parent="WIyWlLk6GJQsqaUBKTNV-1">
          <mxGeometry x="260" y="1638" width="40" height="30" as="geometry" />
        </mxCell>
        <mxCell id="jLUfQ_ZdSW11AOpu9WSQ-95" style="edgeStyle=orthogonalEdgeStyle;rounded=0;orthogonalLoop=1;jettySize=auto;html=1;exitX=0;exitY=0.5;exitDx=0;exitDy=0;endArrow=none;endFill=0;" edge="1" parent="WIyWlLk6GJQsqaUBKTNV-1" source="jLUfQ_ZdSW11AOpu9WSQ-94">
          <mxGeometry relative="1" as="geometry">
            <mxPoint x="110" y="1930.0000000000005" as="targetPoint" />
          </mxGeometry>
        </mxCell>
        <mxCell id="jLUfQ_ZdSW11AOpu9WSQ-94" value="&lt;p style=&quot;margin:0px;margin-top:4px;text-align:center;&quot;&gt;&lt;i&gt;&amp;lt;&amp;lt;Spielfigur&amp;gt;&amp;gt;&lt;/i&gt;&lt;br&gt;&lt;b&gt;Räuber&lt;/b&gt;&lt;/p&gt;" style="verticalAlign=top;align=left;overflow=fill;fontSize=12;fontFamily=Helvetica;html=1;whiteSpace=wrap;" vertex="1" parent="WIyWlLk6GJQsqaUBKTNV-1">
          <mxGeometry x="201" y="1978" width="110" height="42" as="geometry" />
        </mxCell>
        <mxCell id="jLUfQ_ZdSW11AOpu9WSQ-96" value="1" style="text;html=1;align=center;verticalAlign=middle;resizable=0;points=[];autosize=1;strokeColor=none;fillColor=none;" vertex="1" parent="WIyWlLk6GJQsqaUBKTNV-1">
          <mxGeometry x="175" y="1990" width="30" height="30" as="geometry" />
        </mxCell>
        <mxCell id="jLUfQ_ZdSW11AOpu9WSQ-97" value="Spielbestandteil" style="swimlane;fontStyle=1;align=center;verticalAlign=top;childLayout=stackLayout;horizontal=1;startSize=26;horizontalStack=0;resizeParent=1;resizeParentMax=0;resizeLast=0;collapsible=1;marginBottom=0;whiteSpace=wrap;html=1;" vertex="1" parent="WIyWlLk6GJQsqaUBKTNV-1">
          <mxGeometry x="770" y="1650" width="160" height="78" as="geometry" />
        </mxCell>
        <mxCell id="jLUfQ_ZdSW11AOpu9WSQ-98" value="+titel string&lt;br&gt;+siegpunkte: int" style="text;strokeColor=none;fillColor=none;align=left;verticalAlign=top;spacingLeft=4;spacingRight=4;overflow=hidden;rotatable=0;points=[[0,0.5],[1,0.5]];portConstraint=eastwest;whiteSpace=wrap;html=1;" vertex="1" parent="jLUfQ_ZdSW11AOpu9WSQ-97">
          <mxGeometry y="26" width="160" height="44" as="geometry" />
        </mxCell>
        <mxCell id="jLUfQ_ZdSW11AOpu9WSQ-99" value="" style="line;strokeWidth=1;fillColor=none;align=left;verticalAlign=middle;spacingTop=-1;spacingLeft=3;spacingRight=3;rotatable=0;labelPosition=right;points=[];portConstraint=eastwest;strokeColor=inherit;" vertex="1" parent="jLUfQ_ZdSW11AOpu9WSQ-97">
          <mxGeometry y="70" width="160" height="8" as="geometry" />
        </mxCell>
        <mxCell id="jLUfQ_ZdSW11AOpu9WSQ-102" style="edgeStyle=orthogonalEdgeStyle;rounded=0;orthogonalLoop=1;jettySize=auto;html=1;exitX=0.5;exitY=0;exitDx=0;exitDy=0;endArrow=none;endFill=0;" edge="1" parent="WIyWlLk6GJQsqaUBKTNV-1" source="jLUfQ_ZdSW11AOpu9WSQ-97">
          <mxGeometry relative="1" as="geometry">
            <mxPoint x="1160" y="1505" as="targetPoint" />
            <Array as="points">
              <mxPoint x="850" y="1575" />
              <mxPoint x="1160" y="1575" />
            </Array>
          </mxGeometry>
        </mxCell>
        <mxCell id="jLUfQ_ZdSW11AOpu9WSQ-103" value="2" style="edgeLabel;html=1;align=center;verticalAlign=middle;resizable=0;points=[];" vertex="1" connectable="0" parent="jLUfQ_ZdSW11AOpu9WSQ-102">
          <mxGeometry x="-0.9279" y="-9" relative="1" as="geometry">
            <mxPoint as="offset" />
          </mxGeometry>
        </mxCell>
        <mxCell id="jLUfQ_ZdSW11AOpu9WSQ-118" style="edgeStyle=orthogonalEdgeStyle;rounded=0;orthogonalLoop=1;jettySize=auto;html=1;exitX=0.5;exitY=0;exitDx=0;exitDy=0;" edge="1" parent="WIyWlLk6GJQsqaUBKTNV-1" source="jLUfQ_ZdSW11AOpu9WSQ-104">
          <mxGeometry relative="1" as="geometry">
            <mxPoint x="840" y="1730" as="targetPoint" />
          </mxGeometry>
        </mxCell>
        <mxCell id="jLUfQ_ZdSW11AOpu9WSQ-104" value="Rittermacht" style="swimlane;fontStyle=0;childLayout=stackLayout;horizontal=1;startSize=26;fillColor=none;horizontalStack=0;resizeParent=1;resizeParentMax=0;resizeLast=0;collapsible=1;marginBottom=0;whiteSpace=wrap;html=1;" vertex="1" parent="WIyWlLk6GJQsqaUBKTNV-1">
          <mxGeometry x="580" y="1871" width="140" height="104" as="geometry" />
        </mxCell>
        <mxCell id="jLUfQ_ZdSW11AOpu9WSQ-105" value="+ field: type" style="text;strokeColor=none;fillColor=none;align=left;verticalAlign=top;spacingLeft=4;spacingRight=4;overflow=hidden;rotatable=0;points=[[0,0.5],[1,0.5]];portConstraint=eastwest;whiteSpace=wrap;html=1;" vertex="1" parent="jLUfQ_ZdSW11AOpu9WSQ-104">
          <mxGeometry y="26" width="140" height="26" as="geometry" />
        </mxCell>
        <mxCell id="jLUfQ_ZdSW11AOpu9WSQ-106" value="+ field: type" style="text;strokeColor=none;fillColor=none;align=left;verticalAlign=top;spacingLeft=4;spacingRight=4;overflow=hidden;rotatable=0;points=[[0,0.5],[1,0.5]];portConstraint=eastwest;whiteSpace=wrap;html=1;" vertex="1" parent="jLUfQ_ZdSW11AOpu9WSQ-104">
          <mxGeometry y="52" width="140" height="26" as="geometry" />
        </mxCell>
        <mxCell id="jLUfQ_ZdSW11AOpu9WSQ-107" value="+ field: type" style="text;strokeColor=none;fillColor=none;align=left;verticalAlign=top;spacingLeft=4;spacingRight=4;overflow=hidden;rotatable=0;points=[[0,0.5],[1,0.5]];portConstraint=eastwest;whiteSpace=wrap;html=1;" vertex="1" parent="jLUfQ_ZdSW11AOpu9WSQ-104">
          <mxGeometry y="78" width="140" height="26" as="geometry" />
        </mxCell>
        <mxCell id="jLUfQ_ZdSW11AOpu9WSQ-117" style="edgeStyle=orthogonalEdgeStyle;rounded=0;orthogonalLoop=1;jettySize=auto;html=1;exitX=0.25;exitY=0;exitDx=0;exitDy=0;endArrow=none;endFill=0;" edge="1" parent="WIyWlLk6GJQsqaUBKTNV-1" source="jLUfQ_ZdSW11AOpu9WSQ-109">
          <mxGeometry relative="1" as="geometry">
            <mxPoint x="840" y="1790" as="targetPoint" />
          </mxGeometry>
        </mxCell>
        <mxCell id="jLUfQ_ZdSW11AOpu9WSQ-109" value="Classname" style="swimlane;fontStyle=0;childLayout=stackLayout;horizontal=1;startSize=26;fillColor=none;horizontalStack=0;resizeParent=1;resizeParentMax=0;resizeLast=0;collapsible=1;marginBottom=0;whiteSpace=wrap;html=1;" vertex="1" parent="WIyWlLk6GJQsqaUBKTNV-1">
          <mxGeometry x="800" y="1866" width="140" height="104" as="geometry" />
        </mxCell>
        <mxCell id="jLUfQ_ZdSW11AOpu9WSQ-110" value="+ field: type" style="text;strokeColor=none;fillColor=none;align=left;verticalAlign=top;spacingLeft=4;spacingRight=4;overflow=hidden;rotatable=0;points=[[0,0.5],[1,0.5]];portConstraint=eastwest;whiteSpace=wrap;html=1;" vertex="1" parent="jLUfQ_ZdSW11AOpu9WSQ-109">
          <mxGeometry y="26" width="140" height="26" as="geometry" />
        </mxCell>
        <mxCell id="jLUfQ_ZdSW11AOpu9WSQ-111" value="+ field: type" style="text;strokeColor=none;fillColor=none;align=left;verticalAlign=top;spacingLeft=4;spacingRight=4;overflow=hidden;rotatable=0;points=[[0,0.5],[1,0.5]];portConstraint=eastwest;whiteSpace=wrap;html=1;" vertex="1" parent="jLUfQ_ZdSW11AOpu9WSQ-109">
          <mxGeometry y="52" width="140" height="26" as="geometry" />
        </mxCell>
        <mxCell id="jLUfQ_ZdSW11AOpu9WSQ-112" value="+ field: type" style="text;strokeColor=none;fillColor=none;align=left;verticalAlign=top;spacingLeft=4;spacingRight=4;overflow=hidden;rotatable=0;points=[[0,0.5],[1,0.5]];portConstraint=eastwest;whiteSpace=wrap;html=1;" vertex="1" parent="jLUfQ_ZdSW11AOpu9WSQ-109">
          <mxGeometry y="78" width="140" height="26" as="geometry" />
        </mxCell>
      </root>
    </mxGraphModel>
  </diagram>
</mxfile>
